<?xml version="1.0" encoding="utf-8" standalone="no"?>
<!DOCTYPE svg PUBLIC "-//W3C//DTD SVG 1.1//EN"
  "http://www.w3.org/Graphics/SVG/1.1/DTD/svg11.dtd">
<svg xmlns:xlink="http://www.w3.org/1999/xlink" width="1080pt" height="288pt" viewBox="0 0 1080 288" xmlns="http://www.w3.org/2000/svg" version="1.1">
 <metadata>
  <rdf:RDF xmlns:dc="http://purl.org/dc/elements/1.1/" xmlns:cc="http://creativecommons.org/ns#" xmlns:rdf="http://www.w3.org/1999/02/22-rdf-syntax-ns#">
   <cc:Work>
    <dc:type rdf:resource="http://purl.org/dc/dcmitype/StillImage"/>
    <dc:date>2024-06-11T12:17:54.058452</dc:date>
    <dc:format>image/svg+xml</dc:format>
    <dc:creator>
     <cc:Agent>
      <dc:title>Matplotlib v3.9.0, https://matplotlib.org/</dc:title>
     </cc:Agent>
    </dc:creator>
   </cc:Work>
  </rdf:RDF>
 </metadata>
 <defs>
  <style type="text/css">*{stroke-linejoin: round; stroke-linecap: butt}</style>
 </defs>
 <g id="figure_1">
  <g id="patch_1">
   <path d="M 0 288 
L 1080 288 
L 1080 0 
L 0 0 
z
" style="fill: #ffffff"/>
  </g>
  <g id="axes_1">
   <g id="patch_2">
    <path d="M 135 256.32 
L 972 256.32 
L 972 34.56 
L 135 34.56 
z
" style="fill: #ffffff"/>
   </g>
   <g id="QuadMesh_1">
    <path d="M 135 34.56 
L 146.957143 34.56 
L 146.957143 256.32 
L 135 256.32 
L 135 34.56 
" clip-path="url(#p8d02477bfc)" style="fill: #f7b99e; stroke: #ffffff"/>
    <path d="M 146.957143 34.56 
L 158.914286 34.56 
L 158.914286 256.32 
L 146.957143 256.32 
L 146.957143 34.56 
" clip-path="url(#p8d02477bfc)" style="fill: #a2c1ff; stroke: #ffffff"/>
    <path d="M 158.914286 34.56 
L 170.871429 34.56 
L 170.871429 256.32 
L 158.914286 256.32 
L 158.914286 34.56 
" clip-path="url(#p8d02477bfc)" style="fill: #a3c2fe; stroke: #ffffff"/>
    <path d="M 170.871429 34.56 
L 182.828571 34.56 
L 182.828571 256.32 
L 170.871429 256.32 
L 170.871429 34.56 
" clip-path="url(#p8d02477bfc)" style="fill: #c6d6f1; stroke: #ffffff"/>
    <path d="M 182.828571 34.56 
L 194.785714 34.56 
L 194.785714 256.32 
L 182.828571 256.32 
L 182.828571 34.56 
" clip-path="url(#p8d02477bfc)" style="fill: #b7cff9; stroke: #ffffff"/>
    <path d="M 194.785714 34.56 
L 206.742857 34.56 
L 206.742857 256.32 
L 194.785714 256.32 
L 194.785714 34.56 
" clip-path="url(#p8d02477bfc)" style="fill: #d3dbe7; stroke: #ffffff"/>
    <path d="M 206.742857 34.56 
L 218.7 34.56 
L 218.7 256.32 
L 206.742857 256.32 
L 206.742857 34.56 
" clip-path="url(#p8d02477bfc)" style="fill: #6f92f3; stroke: #ffffff"/>
    <path d="M 218.7 34.56 
L 230.657143 34.56 
L 230.657143 256.32 
L 218.7 256.32 
L 218.7 34.56 
" clip-path="url(#p8d02477bfc)" style="fill: #ead5c9; stroke: #ffffff"/>
    <path d="M 230.657143 34.56 
L 242.614286 34.56 
L 242.614286 256.32 
L 230.657143 256.32 
L 230.657143 34.56 
" clip-path="url(#p8d02477bfc)" style="fill: #f3c8b2; stroke: #ffffff"/>
    <path d="M 242.614286 34.56 
L 254.571429 34.56 
L 254.571429 256.32 
L 242.614286 256.32 
L 242.614286 34.56 
" clip-path="url(#p8d02477bfc)" style="fill: #d1dae9; stroke: #ffffff"/>
    <path d="M 254.571429 34.56 
L 266.528571 34.56 
L 266.528571 256.32 
L 254.571429 256.32 
L 254.571429 34.56 
" clip-path="url(#p8d02477bfc)" style="fill: #b7cff9; stroke: #ffffff"/>
    <path d="M 266.528571 34.56 
L 278.485714 34.56 
L 278.485714 256.32 
L 266.528571 256.32 
L 266.528571 34.56 
" clip-path="url(#p8d02477bfc)" style="fill: #6a8bef; stroke: #ffffff"/>
    <path d="M 278.485714 34.56 
L 290.442857 34.56 
L 290.442857 256.32 
L 278.485714 256.32 
L 278.485714 34.56 
" clip-path="url(#p8d02477bfc)" style="fill: #96b7ff; stroke: #ffffff"/>
    <path d="M 290.442857 34.56 
L 302.4 34.56 
L 302.4 256.32 
L 290.442857 256.32 
L 290.442857 34.56 
" clip-path="url(#p8d02477bfc)" style="fill: #aec9fc; stroke: #ffffff"/>
    <path d="M 302.4 34.56 
L 314.357143 34.56 
L 314.357143 256.32 
L 302.4 256.32 
L 302.4 34.56 
" clip-path="url(#p8d02477bfc)" style="fill: #3b4cc0; stroke: #ffffff"/>
    <path d="M 314.357143 34.56 
L 326.314286 34.56 
L 326.314286 256.32 
L 314.357143 256.32 
L 314.357143 34.56 
" clip-path="url(#p8d02477bfc)" style="fill: #93b5fe; stroke: #ffffff"/>
    <path d="M 326.314286 34.56 
L 338.271429 34.56 
L 338.271429 256.32 
L 326.314286 256.32 
L 326.314286 34.56 
" clip-path="url(#p8d02477bfc)" style="fill: #f29274; stroke: #ffffff"/>
    <path d="M 338.271429 34.56 
L 350.228571 34.56 
L 350.228571 256.32 
L 338.271429 256.32 
L 338.271429 34.56 
" clip-path="url(#p8d02477bfc)" style="fill: #d4dbe6; stroke: #ffffff"/>
    <path d="M 350.228571 34.56 
L 362.185714 34.56 
L 362.185714 256.32 
L 350.228571 256.32 
L 350.228571 34.56 
" clip-path="url(#p8d02477bfc)" style="fill: #3f53c6; stroke: #ffffff"/>
    <path d="M 362.185714 34.56 
L 374.142857 34.56 
L 374.142857 256.32 
L 362.185714 256.32 
L 362.185714 34.56 
" clip-path="url(#p8d02477bfc)" style="fill: #b7cff9; stroke: #ffffff"/>
    <path d="M 374.142857 34.56 
L 386.1 34.56 
L 386.1 256.32 
L 374.142857 256.32 
L 374.142857 34.56 
" clip-path="url(#p8d02477bfc)" style="fill: #c0d4f5; stroke: #ffffff"/>
    <path d="M 386.1 34.56 
L 398.057143 34.56 
L 398.057143 256.32 
L 386.1 256.32 
L 386.1 34.56 
" clip-path="url(#p8d02477bfc)" style="fill: #d1dae9; stroke: #ffffff"/>
    <path d="M 398.057143 34.56 
L 410.014286 34.56 
L 410.014286 256.32 
L 398.057143 256.32 
L 398.057143 34.56 
" clip-path="url(#p8d02477bfc)" style="fill: #88abfd; stroke: #ffffff"/>
    <path d="M 410.014286 34.56 
L 421.971429 34.56 
L 421.971429 256.32 
L 410.014286 256.32 
L 410.014286 34.56 
" clip-path="url(#p8d02477bfc)" style="fill: #bed2f6; stroke: #ffffff"/>
    <path d="M 421.971429 34.56 
L 433.928571 34.56 
L 433.928571 256.32 
L 421.971429 256.32 
L 421.971429 34.56 
" clip-path="url(#p8d02477bfc)" style="fill: #f4c5ad; stroke: #ffffff"/>
    <path d="M 433.928571 34.56 
L 445.885714 34.56 
L 445.885714 256.32 
L 433.928571 256.32 
L 433.928571 34.56 
" clip-path="url(#p8d02477bfc)" style="fill: #bad0f8; stroke: #ffffff"/>
    <path d="M 445.885714 34.56 
L 457.842857 34.56 
L 457.842857 256.32 
L 445.885714 256.32 
L 445.885714 34.56 
" clip-path="url(#p8d02477bfc)" style="fill: #abc8fd; stroke: #ffffff"/>
    <path d="M 457.842857 34.56 
L 469.8 34.56 
L 469.8 256.32 
L 457.842857 256.32 
L 457.842857 34.56 
" clip-path="url(#p8d02477bfc)" style="fill: #e0654f; stroke: #ffffff"/>
    <path d="M 469.8 34.56 
L 481.757143 34.56 
L 481.757143 256.32 
L 469.8 256.32 
L 469.8 34.56 
" clip-path="url(#p8d02477bfc)" style="fill: #d9dce1; stroke: #ffffff"/>
    <path d="M 481.757143 34.56 
L 493.714286 34.56 
L 493.714286 256.32 
L 481.757143 256.32 
L 481.757143 34.56 
" clip-path="url(#p8d02477bfc)" style="fill: #f6a385; stroke: #ffffff"/>
    <path d="M 493.714286 34.56 
L 505.671429 34.56 
L 505.671429 256.32 
L 493.714286 256.32 
L 493.714286 34.56 
" clip-path="url(#p8d02477bfc)" style="fill: #85a8fc; stroke: #ffffff"/>
    <path d="M 505.671429 34.56 
L 517.628571 34.56 
L 517.628571 256.32 
L 505.671429 256.32 
L 505.671429 34.56 
" clip-path="url(#p8d02477bfc)" style="fill: #ebd3c6; stroke: #ffffff"/>
    <path d="M 517.628571 34.56 
L 529.585714 34.56 
L 529.585714 256.32 
L 517.628571 256.32 
L 517.628571 34.56 
" clip-path="url(#p8d02477bfc)" style="fill: #b40426; stroke: #ffffff"/>
    <path d="M 529.585714 34.56 
L 541.542857 34.56 
L 541.542857 256.32 
L 529.585714 256.32 
L 529.585714 34.56 
" clip-path="url(#p8d02477bfc)" style="fill: #88abfd; stroke: #ffffff"/>
    <path d="M 541.542857 34.56 
L 553.5 34.56 
L 553.5 256.32 
L 541.542857 256.32 
L 541.542857 34.56 
" clip-path="url(#p8d02477bfc)" style="fill: #e2dad5; stroke: #ffffff"/>
    <path d="M 553.5 34.56 
L 565.457143 34.56 
L 565.457143 256.32 
L 553.5 256.32 
L 553.5 34.56 
" clip-path="url(#p8d02477bfc)" style="fill: #536edd; stroke: #ffffff"/>
    <path d="M 565.457143 34.56 
L 577.414286 34.56 
L 577.414286 256.32 
L 565.457143 256.32 
L 565.457143 34.56 
" clip-path="url(#p8d02477bfc)" style="fill: #f7b194; stroke: #ffffff"/>
    <path d="M 577.414286 34.56 
L 589.371429 34.56 
L 589.371429 256.32 
L 577.414286 256.32 
L 577.414286 34.56 
" clip-path="url(#p8d02477bfc)" style="fill: #edd1c2; stroke: #ffffff"/>
    <path d="M 589.371429 34.56 
L 601.328571 34.56 
L 601.328571 256.32 
L 589.371429 256.32 
L 589.371429 34.56 
" clip-path="url(#p8d02477bfc)" style="fill: #f5c1a9; stroke: #ffffff"/>
    <path d="M 601.328571 34.56 
L 613.285714 34.56 
L 613.285714 256.32 
L 601.328571 256.32 
L 601.328571 34.56 
" clip-path="url(#p8d02477bfc)" style="fill: #d3dbe7; stroke: #ffffff"/>
    <path d="M 613.285714 34.56 
L 625.242857 34.56 
L 625.242857 256.32 
L 613.285714 256.32 
L 613.285714 34.56 
" clip-path="url(#p8d02477bfc)" style="fill: #f2c9b4; stroke: #ffffff"/>
    <path d="M 625.242857 34.56 
L 637.2 34.56 
L 637.2 256.32 
L 625.242857 256.32 
L 625.242857 34.56 
" clip-path="url(#p8d02477bfc)" style="fill: #f6a283; stroke: #ffffff"/>
    <path d="M 637.2 34.56 
L 649.157143 34.56 
L 649.157143 256.32 
L 637.2 256.32 
L 637.2 34.56 
" clip-path="url(#p8d02477bfc)" style="fill: #f2cab5; stroke: #ffffff"/>
    <path d="M 649.157143 34.56 
L 661.114286 34.56 
L 661.114286 256.32 
L 649.157143 256.32 
L 649.157143 34.56 
" clip-path="url(#p8d02477bfc)" style="fill: #cbd8ee; stroke: #ffffff"/>
    <path d="M 661.114286 34.56 
L 673.071429 34.56 
L 673.071429 256.32 
L 661.114286 256.32 
L 661.114286 34.56 
" clip-path="url(#p8d02477bfc)" style="fill: #f7a98b; stroke: #ffffff"/>
    <path d="M 673.071429 34.56 
L 685.028571 34.56 
L 685.028571 256.32 
L 673.071429 256.32 
L 673.071429 34.56 
" clip-path="url(#p8d02477bfc)" style="fill: #3e51c5; stroke: #ffffff"/>
    <path d="M 685.028571 34.56 
L 696.985714 34.56 
L 696.985714 256.32 
L 685.028571 256.32 
L 685.028571 34.56 
" clip-path="url(#p8d02477bfc)" style="fill: #e4d9d2; stroke: #ffffff"/>
    <path d="M 696.985714 34.56 
L 708.942857 34.56 
L 708.942857 256.32 
L 696.985714 256.32 
L 696.985714 34.56 
" clip-path="url(#p8d02477bfc)" style="fill: #d5dbe5; stroke: #ffffff"/>
    <path d="M 708.942857 34.56 
L 720.9 34.56 
L 720.9 256.32 
L 708.942857 256.32 
L 708.942857 34.56 
" clip-path="url(#p8d02477bfc)" style="fill: #506bda; stroke: #ffffff"/>
    <path d="M 720.9 34.56 
L 732.857143 34.56 
L 732.857143 256.32 
L 720.9 256.32 
L 720.9 34.56 
" clip-path="url(#p8d02477bfc)" style="fill: #f6bea4; stroke: #ffffff"/>
    <path d="M 732.857143 34.56 
L 744.814286 34.56 
L 744.814286 256.32 
L 732.857143 256.32 
L 732.857143 34.56 
" clip-path="url(#p8d02477bfc)" style="fill: #cedaeb; stroke: #ffffff"/>
    <path d="M 744.814286 34.56 
L 756.771429 34.56 
L 756.771429 256.32 
L 744.814286 256.32 
L 744.814286 34.56 
" clip-path="url(#p8d02477bfc)" style="fill: #f1cdba; stroke: #ffffff"/>
    <path d="M 756.771429 34.56 
L 768.728571 34.56 
L 768.728571 256.32 
L 756.771429 256.32 
L 756.771429 34.56 
" clip-path="url(#p8d02477bfc)" style="fill: #779af7; stroke: #ffffff"/>
    <path d="M 768.728571 34.56 
L 780.685714 34.56 
L 780.685714 256.32 
L 768.728571 256.32 
L 768.728571 34.56 
" clip-path="url(#p8d02477bfc)" style="fill: #c4d5f3; stroke: #ffffff"/>
    <path d="M 780.685714 34.56 
L 792.642857 34.56 
L 792.642857 256.32 
L 780.685714 256.32 
L 780.685714 34.56 
" clip-path="url(#p8d02477bfc)" style="fill: #dddcdc; stroke: #ffffff"/>
    <path d="M 792.642857 34.56 
L 804.6 34.56 
L 804.6 256.32 
L 792.642857 256.32 
L 792.642857 34.56 
" clip-path="url(#p8d02477bfc)" style="fill: #93b5fe; stroke: #ffffff"/>
    <path d="M 804.6 34.56 
L 816.557143 34.56 
L 816.557143 256.32 
L 804.6 256.32 
L 804.6 34.56 
" clip-path="url(#p8d02477bfc)" style="fill: #dedcdb; stroke: #ffffff"/>
    <path d="M 816.557143 34.56 
L 828.514286 34.56 
L 828.514286 256.32 
L 816.557143 256.32 
L 816.557143 34.56 
" clip-path="url(#p8d02477bfc)" style="fill: #f7b497; stroke: #ffffff"/>
    <path d="M 828.514286 34.56 
L 840.471429 34.56 
L 840.471429 256.32 
L 828.514286 256.32 
L 828.514286 34.56 
" clip-path="url(#p8d02477bfc)" style="fill: #a7c5fe; stroke: #ffffff"/>
    <path d="M 840.471429 34.56 
L 852.428571 34.56 
L 852.428571 256.32 
L 840.471429 256.32 
L 840.471429 34.56 
" clip-path="url(#p8d02477bfc)" style="fill: #a9c6fd; stroke: #ffffff"/>
    <path d="M 852.428571 34.56 
L 864.385714 34.56 
L 864.385714 256.32 
L 852.428571 256.32 
L 852.428571 34.56 
" clip-path="url(#p8d02477bfc)" style="fill: #dfdbd9; stroke: #ffffff"/>
    <path d="M 864.385714 34.56 
L 876.342857 34.56 
L 876.342857 256.32 
L 864.385714 256.32 
L 864.385714 34.56 
" clip-path="url(#p8d02477bfc)" style="fill: #a3c2fe; stroke: #ffffff"/>
    <path d="M 876.342857 34.56 
L 888.3 34.56 
L 888.3 256.32 
L 876.342857 256.32 
L 876.342857 34.56 
" clip-path="url(#p8d02477bfc)" style="fill: #9abbff; stroke: #ffffff"/>
    <path d="M 888.3 34.56 
L 900.257143 34.56 
L 900.257143 256.32 
L 888.3 256.32 
L 888.3 34.56 
" clip-path="url(#p8d02477bfc)" style="fill: #b7cff9; stroke: #ffffff"/>
    <path d="M 900.257143 34.56 
L 912.214286 34.56 
L 912.214286 256.32 
L 900.257143 256.32 
L 900.257143 34.56 
" clip-path="url(#p8d02477bfc)" style="fill: #9fbfff; stroke: #ffffff"/>
    <path d="M 912.214286 34.56 
L 924.171429 34.56 
L 924.171429 256.32 
L 912.214286 256.32 
L 912.214286 34.56 
" clip-path="url(#p8d02477bfc)" style="fill: #f08b6e; stroke: #ffffff"/>
    <path d="M 924.171429 34.56 
L 936.128571 34.56 
L 936.128571 256.32 
L 924.171429 256.32 
L 924.171429 34.56 
" clip-path="url(#p8d02477bfc)" style="fill: #d7dce3; stroke: #ffffff"/>
    <path d="M 936.128571 34.56 
L 948.085714 34.56 
L 948.085714 256.32 
L 936.128571 256.32 
L 936.128571 34.56 
" clip-path="url(#p8d02477bfc)" style="fill: #8caffe; stroke: #ffffff"/>
    <path d="M 948.085714 34.56 
L 960.042857 34.56 
L 960.042857 256.32 
L 948.085714 256.32 
L 948.085714 34.56 
" clip-path="url(#p8d02477bfc)" style="fill: #506bda; stroke: #ffffff"/>
    <path d="M 960.042857 34.56 
L 972 34.56 
L 972 256.32 
L 960.042857 256.32 
L 960.042857 34.56 
" clip-path="url(#p8d02477bfc)" style="fill: #f1ccb8; stroke: #ffffff"/>
   </g>
   <g id="matplotlib.axis_1"/>
   <g id="matplotlib.axis_2"/>
  </g>
 </g>
 <defs>
  <clipPath id="p8d02477bfc">
   <rect x="135" y="34.56" width="837" height="221.76"/>
  </clipPath>
 </defs>
</svg>
