<?xml version="1.0" encoding="UTF-8"?>
<svg xmlns="http://www.w3.org/2000/svg" xmlns:xlink="http://www.w3.org/1999/xlink" width="3000" height="500" viewBox="0 0 3000 500">
<path fill-rule="nonzero" fill="rgb(0%, 0%, 0%)" fill-opacity="1" stroke-width="2" stroke-linecap="butt" stroke-linejoin="miter" stroke="rgb(100%, 100%, 100%)" stroke-opacity="1" stroke-miterlimit="10" d="M 0 0 L 30 0 L 30 500 L 0 500 Z M 0 0 "/>
<path fill-rule="nonzero" fill="rgb(0%, 0%, 0%)" fill-opacity="1" stroke-width="2" stroke-linecap="butt" stroke-linejoin="miter" stroke="rgb(100%, 100%, 100%)" stroke-opacity="1" stroke-miterlimit="10" d="M 30 0 L 60 0 L 60 500 L 30 500 Z M 30 0 "/>
<path fill-rule="nonzero" fill="rgb(0%, 0%, 0%)" fill-opacity="1" stroke-width="2" stroke-linecap="butt" stroke-linejoin="miter" stroke="rgb(100%, 100%, 100%)" stroke-opacity="1" stroke-miterlimit="10" d="M 60 0 L 90 0 L 90 500 L 60 500 Z M 60 0 "/>
<path fill-rule="nonzero" fill="rgb(0%, 0%, 0%)" fill-opacity="1" stroke-width="2" stroke-linecap="butt" stroke-linejoin="miter" stroke="rgb(100%, 100%, 100%)" stroke-opacity="1" stroke-miterlimit="10" d="M 90 0 L 120 0 L 120 500 L 90 500 Z M 90 0 "/>
<path fill-rule="nonzero" fill="rgb(0%, 0%, 0%)" fill-opacity="1" stroke-width="2" stroke-linecap="butt" stroke-linejoin="miter" stroke="rgb(100%, 100%, 100%)" stroke-opacity="1" stroke-miterlimit="10" d="M 120 0 L 150 0 L 150 500 L 120 500 Z M 120 0 "/>
<path fill-rule="nonzero" fill="rgb(0%, 0%, 0%)" fill-opacity="1" stroke-width="2" stroke-linecap="butt" stroke-linejoin="miter" stroke="rgb(100%, 100%, 100%)" stroke-opacity="1" stroke-miterlimit="10" d="M 150 0 L 180 0 L 180 500 L 150 500 Z M 150 0 "/>
<path fill-rule="nonzero" fill="rgb(100%, 84%, 0%)" fill-opacity="1" stroke-width="2" stroke-linecap="butt" stroke-linejoin="miter" stroke="rgb(100%, 100%, 100%)" stroke-opacity="1" stroke-miterlimit="10" d="M 180 0 L 210 0 L 210 500 L 180 500 Z M 180 0 "/>
<path fill-rule="nonzero" fill="rgb(100%, 84%, 0%)" fill-opacity="1" stroke-width="2" stroke-linecap="butt" stroke-linejoin="miter" stroke="rgb(100%, 100%, 100%)" stroke-opacity="1" stroke-miterlimit="10" d="M 210 0 L 240 0 L 240 500 L 210 500 Z M 210 0 "/>
<path fill-rule="nonzero" fill="rgb(0%, 0%, 0%)" fill-opacity="1" stroke-width="2" stroke-linecap="butt" stroke-linejoin="miter" stroke="rgb(100%, 100%, 100%)" stroke-opacity="1" stroke-miterlimit="10" d="M 240 0 L 270 0 L 270 500 L 240 500 Z M 240 0 "/>
<path fill-rule="nonzero" fill="rgb(0%, 0%, 0%)" fill-opacity="1" stroke-width="2" stroke-linecap="butt" stroke-linejoin="miter" stroke="rgb(100%, 100%, 100%)" stroke-opacity="1" stroke-miterlimit="10" d="M 270 0 L 300 0 L 300 500 L 270 500 Z M 270 0 "/>
<path fill-rule="nonzero" fill="rgb(100%, 84%, 0%)" fill-opacity="1" stroke-width="2" stroke-linecap="butt" stroke-linejoin="miter" stroke="rgb(100%, 100%, 100%)" stroke-opacity="1" stroke-miterlimit="10" d="M 300 0 L 330 0 L 330 500 L 300 500 Z M 300 0 "/>
<path fill-rule="nonzero" fill="rgb(100%, 84%, 0%)" fill-opacity="1" stroke-width="2" stroke-linecap="butt" stroke-linejoin="miter" stroke="rgb(100%, 100%, 100%)" stroke-opacity="1" stroke-miterlimit="10" d="M 330 0 L 360 0 L 360 500 L 330 500 Z M 330 0 "/>
<path fill-rule="nonzero" fill="rgb(100%, 84%, 0%)" fill-opacity="1" stroke-width="2" stroke-linecap="butt" stroke-linejoin="miter" stroke="rgb(100%, 100%, 100%)" stroke-opacity="1" stroke-miterlimit="10" d="M 360 0 L 390 0 L 390 500 L 360 500 Z M 360 0 "/>
<path fill-rule="nonzero" fill="rgb(100%, 84%, 0%)" fill-opacity="1" stroke-width="2" stroke-linecap="butt" stroke-linejoin="miter" stroke="rgb(100%, 100%, 100%)" stroke-opacity="1" stroke-miterlimit="10" d="M 390 0 L 420 0 L 420 500 L 390 500 Z M 390 0 "/>
<path fill-rule="nonzero" fill="rgb(100%, 84%, 0%)" fill-opacity="1" stroke-width="2" stroke-linecap="butt" stroke-linejoin="miter" stroke="rgb(100%, 100%, 100%)" stroke-opacity="1" stroke-miterlimit="10" d="M 420 0 L 450 0 L 450 500 L 420 500 Z M 420 0 "/>
<path fill-rule="nonzero" fill="rgb(100%, 84%, 0%)" fill-opacity="1" stroke-width="2" stroke-linecap="butt" stroke-linejoin="miter" stroke="rgb(100%, 100%, 100%)" stroke-opacity="1" stroke-miterlimit="10" d="M 450 0 L 480 0 L 480 500 L 450 500 Z M 450 0 "/>
<path fill-rule="nonzero" fill="rgb(100%, 84%, 0%)" fill-opacity="1" stroke-width="2" stroke-linecap="butt" stroke-linejoin="miter" stroke="rgb(100%, 100%, 100%)" stroke-opacity="1" stroke-miterlimit="10" d="M 480 0 L 510 0 L 510 500 L 480 500 Z M 480 0 "/>
<path fill-rule="nonzero" fill="rgb(100%, 84%, 0%)" fill-opacity="1" stroke-width="2" stroke-linecap="butt" stroke-linejoin="miter" stroke="rgb(100%, 100%, 100%)" stroke-opacity="1" stroke-miterlimit="10" d="M 510 0 L 540 0 L 540 500 L 510 500 Z M 510 0 "/>
<path fill-rule="nonzero" fill="rgb(0%, 0%, 0%)" fill-opacity="1" stroke-width="2" stroke-linecap="butt" stroke-linejoin="miter" stroke="rgb(100%, 100%, 100%)" stroke-opacity="1" stroke-miterlimit="10" d="M 540 0 L 570 0 L 570 500 L 540 500 Z M 540 0 "/>
<path fill-rule="nonzero" fill="rgb(100%, 84%, 0%)" fill-opacity="1" stroke-width="2" stroke-linecap="butt" stroke-linejoin="miter" stroke="rgb(100%, 100%, 100%)" stroke-opacity="1" stroke-miterlimit="10" d="M 570 0 L 600 0 L 600 500 L 570 500 Z M 570 0 "/>
<path fill-rule="nonzero" fill="rgb(0%, 0%, 0%)" fill-opacity="1" stroke-width="2" stroke-linecap="butt" stroke-linejoin="miter" stroke="rgb(100%, 100%, 100%)" stroke-opacity="1" stroke-miterlimit="10" d="M 600 0 L 630 0 L 630 500 L 600 500 Z M 600 0 "/>
<path fill-rule="nonzero" fill="rgb(0%, 0%, 0%)" fill-opacity="1" stroke-width="2" stroke-linecap="butt" stroke-linejoin="miter" stroke="rgb(100%, 100%, 100%)" stroke-opacity="1" stroke-miterlimit="10" d="M 630 0 L 660 0 L 660 500 L 630 500 Z M 630 0 "/>
<path fill-rule="nonzero" fill="rgb(0%, 0%, 0%)" fill-opacity="1" stroke-width="2" stroke-linecap="butt" stroke-linejoin="miter" stroke="rgb(100%, 100%, 100%)" stroke-opacity="1" stroke-miterlimit="10" d="M 660 0 L 690 0 L 690 500 L 660 500 Z M 660 0 "/>
<path fill-rule="nonzero" fill="rgb(0%, 0%, 0%)" fill-opacity="1" stroke-width="2" stroke-linecap="butt" stroke-linejoin="miter" stroke="rgb(100%, 100%, 100%)" stroke-opacity="1" stroke-miterlimit="10" d="M 690 0 L 720 0 L 720 500 L 690 500 Z M 690 0 "/>
<path fill-rule="nonzero" fill="rgb(0%, 0%, 0%)" fill-opacity="1" stroke-width="2" stroke-linecap="butt" stroke-linejoin="miter" stroke="rgb(100%, 100%, 100%)" stroke-opacity="1" stroke-miterlimit="10" d="M 720 0 L 750 0 L 750 500 L 720 500 Z M 720 0 "/>
<path fill-rule="nonzero" fill="rgb(100%, 84%, 0%)" fill-opacity="1" stroke-width="2" stroke-linecap="butt" stroke-linejoin="miter" stroke="rgb(100%, 100%, 100%)" stroke-opacity="1" stroke-miterlimit="10" d="M 750 0 L 780 0 L 780 500 L 750 500 Z M 750 0 "/>
<path fill-rule="nonzero" fill="rgb(0%, 0%, 0%)" fill-opacity="1" stroke-width="2" stroke-linecap="butt" stroke-linejoin="miter" stroke="rgb(100%, 100%, 100%)" stroke-opacity="1" stroke-miterlimit="10" d="M 780 0 L 810 0 L 810 500 L 780 500 Z M 780 0 "/>
<path fill-rule="nonzero" fill="rgb(100%, 84%, 0%)" fill-opacity="1" stroke-width="2" stroke-linecap="butt" stroke-linejoin="miter" stroke="rgb(100%, 100%, 100%)" stroke-opacity="1" stroke-miterlimit="10" d="M 810 0 L 840 0 L 840 500 L 810 500 Z M 810 0 "/>
<path fill-rule="nonzero" fill="rgb(100%, 84%, 0%)" fill-opacity="1" stroke-width="2" stroke-linecap="butt" stroke-linejoin="miter" stroke="rgb(100%, 100%, 100%)" stroke-opacity="1" stroke-miterlimit="10" d="M 840 0 L 870 0 L 870 500 L 840 500 Z M 840 0 "/>
<path fill-rule="nonzero" fill="rgb(100%, 84%, 0%)" fill-opacity="1" stroke-width="2" stroke-linecap="butt" stroke-linejoin="miter" stroke="rgb(100%, 100%, 100%)" stroke-opacity="1" stroke-miterlimit="10" d="M 870 0 L 900 0 L 900 500 L 870 500 Z M 870 0 "/>
<path fill-rule="nonzero" fill="rgb(100%, 84%, 0%)" fill-opacity="1" stroke-width="2" stroke-linecap="butt" stroke-linejoin="miter" stroke="rgb(100%, 100%, 100%)" stroke-opacity="1" stroke-miterlimit="10" d="M 900 0 L 930 0 L 930 500 L 900 500 Z M 900 0 "/>
<path fill-rule="nonzero" fill="rgb(100%, 84%, 0%)" fill-opacity="1" stroke-width="2" stroke-linecap="butt" stroke-linejoin="miter" stroke="rgb(100%, 100%, 100%)" stroke-opacity="1" stroke-miterlimit="10" d="M 930 0 L 960 0 L 960 500 L 930 500 Z M 930 0 "/>
<path fill-rule="nonzero" fill="rgb(0%, 0%, 0%)" fill-opacity="1" stroke-width="2" stroke-linecap="butt" stroke-linejoin="miter" stroke="rgb(100%, 100%, 100%)" stroke-opacity="1" stroke-miterlimit="10" d="M 960 0 L 990 0 L 990 500 L 960 500 Z M 960 0 "/>
<path fill-rule="nonzero" fill="rgb(0%, 0%, 0%)" fill-opacity="1" stroke-width="2" stroke-linecap="butt" stroke-linejoin="miter" stroke="rgb(100%, 100%, 100%)" stroke-opacity="1" stroke-miterlimit="10" d="M 990 0 L 1020 0 L 1020 500 L 990 500 Z M 990 0 "/>
<path fill-rule="nonzero" fill="rgb(100%, 84%, 0%)" fill-opacity="1" stroke-width="2" stroke-linecap="butt" stroke-linejoin="miter" stroke="rgb(100%, 100%, 100%)" stroke-opacity="1" stroke-miterlimit="10" d="M 1020 0 L 1050 0 L 1050 500 L 1020 500 Z M 1020 0 "/>
<path fill-rule="nonzero" fill="rgb(0%, 0%, 0%)" fill-opacity="1" stroke-width="2" stroke-linecap="butt" stroke-linejoin="miter" stroke="rgb(100%, 100%, 100%)" stroke-opacity="1" stroke-miterlimit="10" d="M 1050 0 L 1080 0 L 1080 500 L 1050 500 Z M 1050 0 "/>
<path fill-rule="nonzero" fill="rgb(0%, 0%, 0%)" fill-opacity="1" stroke-width="2" stroke-linecap="butt" stroke-linejoin="miter" stroke="rgb(100%, 100%, 100%)" stroke-opacity="1" stroke-miterlimit="10" d="M 1080 0 L 1110 0 L 1110 500 L 1080 500 Z M 1080 0 "/>
<path fill-rule="nonzero" fill="rgb(100%, 84%, 0%)" fill-opacity="1" stroke-width="2" stroke-linecap="butt" stroke-linejoin="miter" stroke="rgb(100%, 100%, 100%)" stroke-opacity="1" stroke-miterlimit="10" d="M 1110 0 L 1140 0 L 1140 500 L 1110 500 Z M 1110 0 "/>
<path fill-rule="nonzero" fill="rgb(100%, 84%, 0%)" fill-opacity="1" stroke-width="2" stroke-linecap="butt" stroke-linejoin="miter" stroke="rgb(100%, 100%, 100%)" stroke-opacity="1" stroke-miterlimit="10" d="M 1140 0 L 1170 0 L 1170 500 L 1140 500 Z M 1140 0 "/>
<path fill-rule="nonzero" fill="rgb(100%, 84%, 0%)" fill-opacity="1" stroke-width="2" stroke-linecap="butt" stroke-linejoin="miter" stroke="rgb(100%, 100%, 100%)" stroke-opacity="1" stroke-miterlimit="10" d="M 1170 0 L 1200 0 L 1200 500 L 1170 500 Z M 1170 0 "/>
<path fill-rule="nonzero" fill="rgb(100%, 84%, 0%)" fill-opacity="1" stroke-width="2" stroke-linecap="butt" stroke-linejoin="miter" stroke="rgb(100%, 100%, 100%)" stroke-opacity="1" stroke-miterlimit="10" d="M 1200 0 L 1230 0 L 1230 500 L 1200 500 Z M 1200 0 "/>
<path fill-rule="nonzero" fill="rgb(100%, 84%, 0%)" fill-opacity="1" stroke-width="2" stroke-linecap="butt" stroke-linejoin="miter" stroke="rgb(100%, 100%, 100%)" stroke-opacity="1" stroke-miterlimit="10" d="M 1230 0 L 1260 0 L 1260 500 L 1230 500 Z M 1230 0 "/>
<path fill-rule="nonzero" fill="rgb(0%, 0%, 0%)" fill-opacity="1" stroke-width="2" stroke-linecap="butt" stroke-linejoin="miter" stroke="rgb(100%, 100%, 100%)" stroke-opacity="1" stroke-miterlimit="10" d="M 1260 0 L 1290 0 L 1290 500 L 1260 500 Z M 1260 0 "/>
<path fill-rule="nonzero" fill="rgb(0%, 0%, 0%)" fill-opacity="1" stroke-width="2" stroke-linecap="butt" stroke-linejoin="miter" stroke="rgb(100%, 100%, 100%)" stroke-opacity="1" stroke-miterlimit="10" d="M 1290 0 L 1320 0 L 1320 500 L 1290 500 Z M 1290 0 "/>
<path fill-rule="nonzero" fill="rgb(100%, 84%, 0%)" fill-opacity="1" stroke-width="2" stroke-linecap="butt" stroke-linejoin="miter" stroke="rgb(100%, 100%, 100%)" stroke-opacity="1" stroke-miterlimit="10" d="M 1320 0 L 1350 0 L 1350 500 L 1320 500 Z M 1320 0 "/>
<path fill-rule="nonzero" fill="rgb(0%, 0%, 0%)" fill-opacity="1" stroke-width="2" stroke-linecap="butt" stroke-linejoin="miter" stroke="rgb(100%, 100%, 100%)" stroke-opacity="1" stroke-miterlimit="10" d="M 1350 0 L 1380 0 L 1380 500 L 1350 500 Z M 1350 0 "/>
<path fill-rule="nonzero" fill="rgb(100%, 84%, 0%)" fill-opacity="1" stroke-width="2" stroke-linecap="butt" stroke-linejoin="miter" stroke="rgb(100%, 100%, 100%)" stroke-opacity="1" stroke-miterlimit="10" d="M 1380 0 L 1410 0 L 1410 500 L 1380 500 Z M 1380 0 "/>
<path fill-rule="nonzero" fill="rgb(100%, 84%, 0%)" fill-opacity="1" stroke-width="2" stroke-linecap="butt" stroke-linejoin="miter" stroke="rgb(100%, 100%, 100%)" stroke-opacity="1" stroke-miterlimit="10" d="M 1410 0 L 1440 0 L 1440 500 L 1410 500 Z M 1410 0 "/>
<path fill-rule="nonzero" fill="rgb(0%, 0%, 0%)" fill-opacity="1" stroke-width="2" stroke-linecap="butt" stroke-linejoin="miter" stroke="rgb(100%, 100%, 100%)" stroke-opacity="1" stroke-miterlimit="10" d="M 1440 0 L 1470 0 L 1470 500 L 1440 500 Z M 1440 0 "/>
<path fill-rule="nonzero" fill="rgb(100%, 84%, 0%)" fill-opacity="1" stroke-width="2" stroke-linecap="butt" stroke-linejoin="miter" stroke="rgb(100%, 100%, 100%)" stroke-opacity="1" stroke-miterlimit="10" d="M 1470 0 L 1500 0 L 1500 500 L 1470 500 Z M 1470 0 "/>
<path fill-rule="nonzero" fill="rgb(0%, 0%, 0%)" fill-opacity="1" stroke-width="2" stroke-linecap="butt" stroke-linejoin="miter" stroke="rgb(100%, 100%, 100%)" stroke-opacity="1" stroke-miterlimit="10" d="M 1500 0 L 1530 0 L 1530 500 L 1500 500 Z M 1500 0 "/>
<path fill-rule="nonzero" fill="rgb(100%, 84%, 0%)" fill-opacity="1" stroke-width="2" stroke-linecap="butt" stroke-linejoin="miter" stroke="rgb(100%, 100%, 100%)" stroke-opacity="1" stroke-miterlimit="10" d="M 1530 0 L 1560 0 L 1560 500 L 1530 500 Z M 1530 0 "/>
<path fill-rule="nonzero" fill="rgb(100%, 84%, 0%)" fill-opacity="1" stroke-width="2" stroke-linecap="butt" stroke-linejoin="miter" stroke="rgb(100%, 100%, 100%)" stroke-opacity="1" stroke-miterlimit="10" d="M 1560 0 L 1590 0 L 1590 500 L 1560 500 Z M 1560 0 "/>
<path fill-rule="nonzero" fill="rgb(100%, 84%, 0%)" fill-opacity="1" stroke-width="2" stroke-linecap="butt" stroke-linejoin="miter" stroke="rgb(100%, 100%, 100%)" stroke-opacity="1" stroke-miterlimit="10" d="M 1590 0 L 1620 0 L 1620 500 L 1590 500 Z M 1590 0 "/>
<path fill-rule="nonzero" fill="rgb(100%, 84%, 0%)" fill-opacity="1" stroke-width="2" stroke-linecap="butt" stroke-linejoin="miter" stroke="rgb(100%, 100%, 100%)" stroke-opacity="1" stroke-miterlimit="10" d="M 1620 0 L 1650 0 L 1650 500 L 1620 500 Z M 1620 0 "/>
<path fill-rule="nonzero" fill="rgb(100%, 84%, 0%)" fill-opacity="1" stroke-width="2" stroke-linecap="butt" stroke-linejoin="miter" stroke="rgb(100%, 100%, 100%)" stroke-opacity="1" stroke-miterlimit="10" d="M 1650 0 L 1680 0 L 1680 500 L 1650 500 Z M 1650 0 "/>
<path fill-rule="nonzero" fill="rgb(0%, 0%, 0%)" fill-opacity="1" stroke-width="2" stroke-linecap="butt" stroke-linejoin="miter" stroke="rgb(100%, 100%, 100%)" stroke-opacity="1" stroke-miterlimit="10" d="M 1680 0 L 1710 0 L 1710 500 L 1680 500 Z M 1680 0 "/>
<path fill-rule="nonzero" fill="rgb(0%, 0%, 0%)" fill-opacity="1" stroke-width="2" stroke-linecap="butt" stroke-linejoin="miter" stroke="rgb(100%, 100%, 100%)" stroke-opacity="1" stroke-miterlimit="10" d="M 1710 0 L 1740 0 L 1740 500 L 1710 500 Z M 1710 0 "/>
<path fill-rule="nonzero" fill="rgb(0%, 0%, 0%)" fill-opacity="1" stroke-width="2" stroke-linecap="butt" stroke-linejoin="miter" stroke="rgb(100%, 100%, 100%)" stroke-opacity="1" stroke-miterlimit="10" d="M 1740 0 L 1770 0 L 1770 500 L 1740 500 Z M 1740 0 "/>
<path fill-rule="nonzero" fill="rgb(100%, 84%, 0%)" fill-opacity="1" stroke-width="2" stroke-linecap="butt" stroke-linejoin="miter" stroke="rgb(100%, 100%, 100%)" stroke-opacity="1" stroke-miterlimit="10" d="M 1770 0 L 1800 0 L 1800 500 L 1770 500 Z M 1770 0 "/>
<path fill-rule="nonzero" fill="rgb(100%, 84%, 0%)" fill-opacity="1" stroke-width="2" stroke-linecap="butt" stroke-linejoin="miter" stroke="rgb(100%, 100%, 100%)" stroke-opacity="1" stroke-miterlimit="10" d="M 1800 0 L 1830 0 L 1830 500 L 1800 500 Z M 1800 0 "/>
<path fill-rule="nonzero" fill="rgb(100%, 84%, 0%)" fill-opacity="1" stroke-width="2" stroke-linecap="butt" stroke-linejoin="miter" stroke="rgb(100%, 100%, 100%)" stroke-opacity="1" stroke-miterlimit="10" d="M 1830 0 L 1860 0 L 1860 500 L 1830 500 Z M 1830 0 "/>
<path fill-rule="nonzero" fill="rgb(100%, 84%, 0%)" fill-opacity="1" stroke-width="2" stroke-linecap="butt" stroke-linejoin="miter" stroke="rgb(100%, 100%, 100%)" stroke-opacity="1" stroke-miterlimit="10" d="M 1860 0 L 1890 0 L 1890 500 L 1860 500 Z M 1860 0 "/>
<path fill-rule="nonzero" fill="rgb(0%, 0%, 0%)" fill-opacity="1" stroke-width="2" stroke-linecap="butt" stroke-linejoin="miter" stroke="rgb(100%, 100%, 100%)" stroke-opacity="1" stroke-miterlimit="10" d="M 1890 0 L 1920 0 L 1920 500 L 1890 500 Z M 1890 0 "/>
<path fill-rule="nonzero" fill="rgb(100%, 84%, 0%)" fill-opacity="1" stroke-width="2" stroke-linecap="butt" stroke-linejoin="miter" stroke="rgb(100%, 100%, 100%)" stroke-opacity="1" stroke-miterlimit="10" d="M 1920 0 L 1950 0 L 1950 500 L 1920 500 Z M 1920 0 "/>
<path fill-rule="nonzero" fill="rgb(0%, 0%, 0%)" fill-opacity="1" stroke-width="2" stroke-linecap="butt" stroke-linejoin="miter" stroke="rgb(100%, 100%, 100%)" stroke-opacity="1" stroke-miterlimit="10" d="M 1950 0 L 1980 0 L 1980 500 L 1950 500 Z M 1950 0 "/>
<path fill-rule="nonzero" fill="rgb(0%, 0%, 0%)" fill-opacity="1" stroke-width="2" stroke-linecap="butt" stroke-linejoin="miter" stroke="rgb(100%, 100%, 100%)" stroke-opacity="1" stroke-miterlimit="10" d="M 1980 0 L 2010 0 L 2010 500 L 1980 500 Z M 1980 0 "/>
<path fill-rule="nonzero" fill="rgb(100%, 84%, 0%)" fill-opacity="1" stroke-width="2" stroke-linecap="butt" stroke-linejoin="miter" stroke="rgb(100%, 100%, 100%)" stroke-opacity="1" stroke-miterlimit="10" d="M 2010 0 L 2040 0 L 2040 500 L 2010 500 Z M 2010 0 "/>
<path fill-rule="nonzero" fill="rgb(100%, 84%, 0%)" fill-opacity="1" stroke-width="2" stroke-linecap="butt" stroke-linejoin="miter" stroke="rgb(100%, 100%, 100%)" stroke-opacity="1" stroke-miterlimit="10" d="M 2040 0 L 2070 0 L 2070 500 L 2040 500 Z M 2040 0 "/>
<path fill-rule="nonzero" fill="rgb(0%, 0%, 0%)" fill-opacity="1" stroke-width="2" stroke-linecap="butt" stroke-linejoin="miter" stroke="rgb(100%, 100%, 100%)" stroke-opacity="1" stroke-miterlimit="10" d="M 2070 0 L 2100 0 L 2100 500 L 2070 500 Z M 2070 0 "/>
<path fill-rule="nonzero" fill="rgb(100%, 84%, 0%)" fill-opacity="1" stroke-width="2" stroke-linecap="butt" stroke-linejoin="miter" stroke="rgb(100%, 100%, 100%)" stroke-opacity="1" stroke-miterlimit="10" d="M 2100 0 L 2130 0 L 2130 500 L 2100 500 Z M 2100 0 "/>
<path fill-rule="nonzero" fill="rgb(0%, 0%, 0%)" fill-opacity="1" stroke-width="2" stroke-linecap="butt" stroke-linejoin="miter" stroke="rgb(100%, 100%, 100%)" stroke-opacity="1" stroke-miterlimit="10" d="M 2130 0 L 2160 0 L 2160 500 L 2130 500 Z M 2130 0 "/>
<path fill-rule="nonzero" fill="rgb(0%, 0%, 0%)" fill-opacity="1" stroke-width="2" stroke-linecap="butt" stroke-linejoin="miter" stroke="rgb(100%, 100%, 100%)" stroke-opacity="1" stroke-miterlimit="10" d="M 2160 0 L 2190 0 L 2190 500 L 2160 500 Z M 2160 0 "/>
<path fill-rule="nonzero" fill="rgb(100%, 84%, 0%)" fill-opacity="1" stroke-width="2" stroke-linecap="butt" stroke-linejoin="miter" stroke="rgb(100%, 100%, 100%)" stroke-opacity="1" stroke-miterlimit="10" d="M 2190 0 L 2220 0 L 2220 500 L 2190 500 Z M 2190 0 "/>
<path fill-rule="nonzero" fill="rgb(0%, 0%, 0%)" fill-opacity="1" stroke-width="2" stroke-linecap="butt" stroke-linejoin="miter" stroke="rgb(100%, 100%, 100%)" stroke-opacity="1" stroke-miterlimit="10" d="M 2220 0 L 2250 0 L 2250 500 L 2220 500 Z M 2220 0 "/>
<path fill-rule="nonzero" fill="rgb(0%, 0%, 0%)" fill-opacity="1" stroke-width="2" stroke-linecap="butt" stroke-linejoin="miter" stroke="rgb(100%, 100%, 100%)" stroke-opacity="1" stroke-miterlimit="10" d="M 2250 0 L 2280 0 L 2280 500 L 2250 500 Z M 2250 0 "/>
<path fill-rule="nonzero" fill="rgb(100%, 84%, 0%)" fill-opacity="1" stroke-width="2" stroke-linecap="butt" stroke-linejoin="miter" stroke="rgb(100%, 100%, 100%)" stroke-opacity="1" stroke-miterlimit="10" d="M 2280 0 L 2310 0 L 2310 500 L 2280 500 Z M 2280 0 "/>
<path fill-rule="nonzero" fill="rgb(100%, 84%, 0%)" fill-opacity="1" stroke-width="2" stroke-linecap="butt" stroke-linejoin="miter" stroke="rgb(100%, 100%, 100%)" stroke-opacity="1" stroke-miterlimit="10" d="M 2310 0 L 2340 0 L 2340 500 L 2310 500 Z M 2310 0 "/>
<path fill-rule="nonzero" fill="rgb(100%, 84%, 0%)" fill-opacity="1" stroke-width="2" stroke-linecap="butt" stroke-linejoin="miter" stroke="rgb(100%, 100%, 100%)" stroke-opacity="1" stroke-miterlimit="10" d="M 2340 0 L 2370 0 L 2370 500 L 2340 500 Z M 2340 0 "/>
<path fill-rule="nonzero" fill="rgb(100%, 84%, 0%)" fill-opacity="1" stroke-width="2" stroke-linecap="butt" stroke-linejoin="miter" stroke="rgb(100%, 100%, 100%)" stroke-opacity="1" stroke-miterlimit="10" d="M 2370 0 L 2400 0 L 2400 500 L 2370 500 Z M 2370 0 "/>
<path fill-rule="nonzero" fill="rgb(0%, 0%, 0%)" fill-opacity="1" stroke-width="2" stroke-linecap="butt" stroke-linejoin="miter" stroke="rgb(100%, 100%, 100%)" stroke-opacity="1" stroke-miterlimit="10" d="M 2400 0 L 2430 0 L 2430 500 L 2400 500 Z M 2400 0 "/>
<path fill-rule="nonzero" fill="rgb(0%, 0%, 0%)" fill-opacity="1" stroke-width="2" stroke-linecap="butt" stroke-linejoin="miter" stroke="rgb(100%, 100%, 100%)" stroke-opacity="1" stroke-miterlimit="10" d="M 2430 0 L 2460 0 L 2460 500 L 2430 500 Z M 2430 0 "/>
<path fill-rule="nonzero" fill="rgb(0%, 0%, 0%)" fill-opacity="1" stroke-width="2" stroke-linecap="butt" stroke-linejoin="miter" stroke="rgb(100%, 100%, 100%)" stroke-opacity="1" stroke-miterlimit="10" d="M 2460 0 L 2490 0 L 2490 500 L 2460 500 Z M 2460 0 "/>
<path fill-rule="nonzero" fill="rgb(100%, 84%, 0%)" fill-opacity="1" stroke-width="2" stroke-linecap="butt" stroke-linejoin="miter" stroke="rgb(100%, 100%, 100%)" stroke-opacity="1" stroke-miterlimit="10" d="M 2490 0 L 2520 0 L 2520 500 L 2490 500 Z M 2490 0 "/>
<path fill-rule="nonzero" fill="rgb(100%, 84%, 0%)" fill-opacity="1" stroke-width="2" stroke-linecap="butt" stroke-linejoin="miter" stroke="rgb(100%, 100%, 100%)" stroke-opacity="1" stroke-miterlimit="10" d="M 2520 0 L 2550 0 L 2550 500 L 2520 500 Z M 2520 0 "/>
<path fill-rule="nonzero" fill="rgb(100%, 84%, 0%)" fill-opacity="1" stroke-width="2" stroke-linecap="butt" stroke-linejoin="miter" stroke="rgb(100%, 100%, 100%)" stroke-opacity="1" stroke-miterlimit="10" d="M 2550 0 L 2580 0 L 2580 500 L 2550 500 Z M 2550 0 "/>
<path fill-rule="nonzero" fill="rgb(0%, 0%, 0%)" fill-opacity="1" stroke-width="2" stroke-linecap="butt" stroke-linejoin="miter" stroke="rgb(100%, 100%, 100%)" stroke-opacity="1" stroke-miterlimit="10" d="M 2580 0 L 2610 0 L 2610 500 L 2580 500 Z M 2580 0 "/>
<path fill-rule="nonzero" fill="rgb(100%, 84%, 0%)" fill-opacity="1" stroke-width="2" stroke-linecap="butt" stroke-linejoin="miter" stroke="rgb(100%, 100%, 100%)" stroke-opacity="1" stroke-miterlimit="10" d="M 2610 0 L 2640 0 L 2640 500 L 2610 500 Z M 2610 0 "/>
<path fill-rule="nonzero" fill="rgb(100%, 84%, 0%)" fill-opacity="1" stroke-width="2" stroke-linecap="butt" stroke-linejoin="miter" stroke="rgb(100%, 100%, 100%)" stroke-opacity="1" stroke-miterlimit="10" d="M 2640 0 L 2670 0 L 2670 500 L 2640 500 Z M 2640 0 "/>
<path fill-rule="nonzero" fill="rgb(0%, 0%, 0%)" fill-opacity="1" stroke-width="2" stroke-linecap="butt" stroke-linejoin="miter" stroke="rgb(100%, 100%, 100%)" stroke-opacity="1" stroke-miterlimit="10" d="M 2670 0 L 2700 0 L 2700 500 L 2670 500 Z M 2670 0 "/>
<path fill-rule="nonzero" fill="rgb(100%, 84%, 0%)" fill-opacity="1" stroke-width="2" stroke-linecap="butt" stroke-linejoin="miter" stroke="rgb(100%, 100%, 100%)" stroke-opacity="1" stroke-miterlimit="10" d="M 2700 0 L 2730 0 L 2730 500 L 2700 500 Z M 2700 0 "/>
<path fill-rule="nonzero" fill="rgb(0%, 0%, 0%)" fill-opacity="1" stroke-width="2" stroke-linecap="butt" stroke-linejoin="miter" stroke="rgb(100%, 100%, 100%)" stroke-opacity="1" stroke-miterlimit="10" d="M 2730 0 L 2760 0 L 2760 500 L 2730 500 Z M 2730 0 "/>
<path fill-rule="nonzero" fill="rgb(0%, 0%, 0%)" fill-opacity="1" stroke-width="2" stroke-linecap="butt" stroke-linejoin="miter" stroke="rgb(100%, 100%, 100%)" stroke-opacity="1" stroke-miterlimit="10" d="M 2760 0 L 2790 0 L 2790 500 L 2760 500 Z M 2760 0 "/>
<path fill-rule="nonzero" fill="rgb(0%, 0%, 0%)" fill-opacity="1" stroke-width="2" stroke-linecap="butt" stroke-linejoin="miter" stroke="rgb(100%, 100%, 100%)" stroke-opacity="1" stroke-miterlimit="10" d="M 2790 0 L 2820 0 L 2820 500 L 2790 500 Z M 2790 0 "/>
<path fill-rule="nonzero" fill="rgb(0%, 0%, 0%)" fill-opacity="1" stroke-width="2" stroke-linecap="butt" stroke-linejoin="miter" stroke="rgb(100%, 100%, 100%)" stroke-opacity="1" stroke-miterlimit="10" d="M 2820 0 L 2850 0 L 2850 500 L 2820 500 Z M 2820 0 "/>
<path fill-rule="nonzero" fill="rgb(0%, 0%, 0%)" fill-opacity="1" stroke-width="2" stroke-linecap="butt" stroke-linejoin="miter" stroke="rgb(100%, 100%, 100%)" stroke-opacity="1" stroke-miterlimit="10" d="M 2850 0 L 2880 0 L 2880 500 L 2850 500 Z M 2850 0 "/>
<path fill-rule="nonzero" fill="rgb(100%, 84%, 0%)" fill-opacity="1" stroke-width="2" stroke-linecap="butt" stroke-linejoin="miter" stroke="rgb(100%, 100%, 100%)" stroke-opacity="1" stroke-miterlimit="10" d="M 2880 0 L 2910 0 L 2910 500 L 2880 500 Z M 2880 0 "/>
<path fill-rule="nonzero" fill="rgb(100%, 84%, 0%)" fill-opacity="1" stroke-width="2" stroke-linecap="butt" stroke-linejoin="miter" stroke="rgb(100%, 100%, 100%)" stroke-opacity="1" stroke-miterlimit="10" d="M 2910 0 L 2940 0 L 2940 500 L 2910 500 Z M 2910 0 "/>
<path fill-rule="nonzero" fill="rgb(100%, 84%, 0%)" fill-opacity="1" stroke-width="2" stroke-linecap="butt" stroke-linejoin="miter" stroke="rgb(100%, 100%, 100%)" stroke-opacity="1" stroke-miterlimit="10" d="M 2940 0 L 2970 0 L 2970 500 L 2940 500 Z M 2940 0 "/>
<path fill-rule="nonzero" fill="rgb(100%, 84%, 0%)" fill-opacity="1" stroke-width="2" stroke-linecap="butt" stroke-linejoin="miter" stroke="rgb(100%, 100%, 100%)" stroke-opacity="1" stroke-miterlimit="10" d="M 2970 0 L 3000 0 L 3000 500 L 2970 500 Z M 2970 0 "/>
</svg>
