<?xml version="1.0" encoding="utf-8" standalone="no"?>
<!DOCTYPE svg PUBLIC "-//W3C//DTD SVG 1.1//EN"
  "http://www.w3.org/Graphics/SVG/1.1/DTD/svg11.dtd">
<svg xmlns:xlink="http://www.w3.org/1999/xlink" width="837pt" height="221.76pt" viewBox="0 0 837 221.76" xmlns="http://www.w3.org/2000/svg" version="1.1">
 <metadata>
  <rdf:RDF xmlns:dc="http://purl.org/dc/elements/1.1/" xmlns:cc="http://creativecommons.org/ns#" xmlns:rdf="http://www.w3.org/1999/02/22-rdf-syntax-ns#">
   <cc:Work>
    <dc:type rdf:resource="http://purl.org/dc/dcmitype/StillImage"/>
    <dc:date>2024-06-23T15:18:55.034964</dc:date>
    <dc:format>image/svg+xml</dc:format>
    <dc:creator>
     <cc:Agent>
      <dc:title>Matplotlib v3.9.0, https://matplotlib.org/</dc:title>
     </cc:Agent>
    </dc:creator>
   </cc:Work>
  </rdf:RDF>
 </metadata>
 <defs>
  <style type="text/css">*{stroke-linejoin: round; stroke-linecap: butt}</style>
 </defs>
 <g id="figure_1">
  <g id="patch_1">
   <path d="M 0 221.76 
L 837 221.76 
L 837 0 
L 0 0 
z
" style="fill: #ffffff"/>
  </g>
  <g id="axes_1">
   <g id="QuadMesh_1">
    <path d="M 0 -0 
L 11.957143 -0 
L 11.957143 221.76 
L 0 221.76 
L 0 -0 
" clip-path="url(#p281a11aa2a)" style="fill: #f1cdba; stroke: #ffffff"/>
    <path d="M 11.957143 -0 
L 23.914286 -0 
L 23.914286 221.76 
L 11.957143 221.76 
L 11.957143 -0 
" clip-path="url(#p281a11aa2a)" style="fill: #ccd9ed; stroke: #ffffff"/>
    <path d="M 23.914286 -0 
L 35.871429 -0 
L 35.871429 221.76 
L 23.914286 221.76 
L 23.914286 -0 
" clip-path="url(#p281a11aa2a)" style="fill: #f2cbb7; stroke: #ffffff"/>
    <path d="M 35.871429 -0 
L 47.828571 -0 
L 47.828571 221.76 
L 35.871429 221.76 
L 35.871429 -0 
" clip-path="url(#p281a11aa2a)" style="fill: #edd2c3; stroke: #ffffff"/>
    <path d="M 47.828571 -0 
L 59.785714 -0 
L 59.785714 221.76 
L 47.828571 221.76 
L 47.828571 -0 
" clip-path="url(#p281a11aa2a)" style="fill: #f5c2aa; stroke: #ffffff"/>
    <path d="M 59.785714 -0 
L 71.742857 -0 
L 71.742857 221.76 
L 59.785714 221.76 
L 59.785714 -0 
" clip-path="url(#p281a11aa2a)" style="fill: #e36c55; stroke: #ffffff"/>
    <path d="M 71.742857 -0 
L 83.7 -0 
L 83.7 221.76 
L 71.742857 221.76 
L 71.742857 -0 
" clip-path="url(#p281a11aa2a)" style="fill: #efcebd; stroke: #ffffff"/>
    <path d="M 83.7 -0 
L 95.657143 -0 
L 95.657143 221.76 
L 83.7 221.76 
L 83.7 -0 
" clip-path="url(#p281a11aa2a)" style="fill: #d24b40; stroke: #ffffff"/>
    <path d="M 95.657143 -0 
L 107.614286 -0 
L 107.614286 221.76 
L 95.657143 221.76 
L 95.657143 -0 
" clip-path="url(#p281a11aa2a)" style="fill: #f7b396; stroke: #ffffff"/>
    <path d="M 107.614286 -0 
L 119.571429 -0 
L 119.571429 221.76 
L 107.614286 221.76 
L 107.614286 -0 
" clip-path="url(#p281a11aa2a)" style="fill: #3b4cc0; stroke: #ffffff"/>
    <path d="M 119.571429 -0 
L 131.528571 -0 
L 131.528571 221.76 
L 119.571429 221.76 
L 119.571429 -0 
" clip-path="url(#p281a11aa2a)" style="fill: #f4987a; stroke: #ffffff"/>
    <path d="M 131.528571 -0 
L 143.485714 -0 
L 143.485714 221.76 
L 131.528571 221.76 
L 131.528571 -0 
" clip-path="url(#p281a11aa2a)" style="fill: #e8d6cc; stroke: #ffffff"/>
    <path d="M 143.485714 -0 
L 155.442857 -0 
L 155.442857 221.76 
L 143.485714 221.76 
L 143.485714 -0 
" clip-path="url(#p281a11aa2a)" style="fill: #f39778; stroke: #ffffff"/>
    <path d="M 155.442857 -0 
L 167.4 -0 
L 167.4 221.76 
L 155.442857 221.76 
L 155.442857 -0 
" clip-path="url(#p281a11aa2a)" style="fill: #a1c0ff; stroke: #ffffff"/>
    <path d="M 167.4 -0 
L 179.357143 -0 
L 179.357143 221.76 
L 167.4 221.76 
L 167.4 -0 
" clip-path="url(#p281a11aa2a)" style="fill: #f39475; stroke: #ffffff"/>
    <path d="M 179.357143 -0 
L 191.314286 -0 
L 191.314286 221.76 
L 179.357143 221.76 
L 179.357143 -0 
" clip-path="url(#p281a11aa2a)" style="fill: #88abfd; stroke: #ffffff"/>
    <path d="M 191.314286 -0 
L 203.271429 -0 
L 203.271429 221.76 
L 191.314286 221.76 
L 191.314286 -0 
" clip-path="url(#p281a11aa2a)" style="fill: #e8d6cc; stroke: #ffffff"/>
    <path d="M 203.271429 -0 
L 215.228571 -0 
L 215.228571 221.76 
L 203.271429 221.76 
L 203.271429 -0 
" clip-path="url(#p281a11aa2a)" style="fill: #edd1c2; stroke: #ffffff"/>
    <path d="M 215.228571 -0 
L 227.185714 -0 
L 227.185714 221.76 
L 215.228571 221.76 
L 215.228571 -0 
" clip-path="url(#p281a11aa2a)" style="fill: #bfd3f6; stroke: #ffffff"/>
    <path d="M 227.185714 -0 
L 239.142857 -0 
L 239.142857 221.76 
L 227.185714 221.76 
L 227.185714 -0 
" clip-path="url(#p281a11aa2a)" style="fill: #aac7fd; stroke: #ffffff"/>
    <path d="M 239.142857 -0 
L 251.1 -0 
L 251.1 221.76 
L 239.142857 221.76 
L 239.142857 -0 
" clip-path="url(#p281a11aa2a)" style="fill: #ccd9ed; stroke: #ffffff"/>
    <path d="M 251.1 -0 
L 263.057143 -0 
L 263.057143 221.76 
L 251.1 221.76 
L 251.1 -0 
" clip-path="url(#p281a11aa2a)" style="fill: #6c8ff1; stroke: #ffffff"/>
    <path d="M 263.057143 -0 
L 275.014286 -0 
L 275.014286 221.76 
L 263.057143 221.76 
L 263.057143 -0 
" clip-path="url(#p281a11aa2a)" style="fill: #f7b99e; stroke: #ffffff"/>
    <path d="M 275.014286 -0 
L 286.971429 -0 
L 286.971429 221.76 
L 275.014286 221.76 
L 275.014286 -0 
" clip-path="url(#p281a11aa2a)" style="fill: #b40426; stroke: #ffffff"/>
    <path d="M 286.971429 -0 
L 298.928571 -0 
L 298.928571 221.76 
L 286.971429 221.76 
L 286.971429 -0 
" clip-path="url(#p281a11aa2a)" style="fill: #e8d6cc; stroke: #ffffff"/>
    <path d="M 298.928571 -0 
L 310.885714 -0 
L 310.885714 221.76 
L 298.928571 221.76 
L 298.928571 -0 
" clip-path="url(#p281a11aa2a)" style="fill: #e9d5cb; stroke: #ffffff"/>
    <path d="M 310.885714 -0 
L 322.842857 -0 
L 322.842857 221.76 
L 310.885714 221.76 
L 310.885714 -0 
" clip-path="url(#p281a11aa2a)" style="fill: #e97a5f; stroke: #ffffff"/>
    <path d="M 322.842857 -0 
L 334.8 -0 
L 334.8 221.76 
L 322.842857 221.76 
L 322.842857 -0 
" clip-path="url(#p281a11aa2a)" style="fill: #ec7f63; stroke: #ffffff"/>
    <path d="M 334.8 -0 
L 346.757143 -0 
L 346.757143 221.76 
L 334.8 221.76 
L 334.8 -0 
" clip-path="url(#p281a11aa2a)" style="fill: #f08b6e; stroke: #ffffff"/>
    <path d="M 346.757143 -0 
L 358.714286 -0 
L 358.714286 221.76 
L 346.757143 221.76 
L 346.757143 -0 
" clip-path="url(#p281a11aa2a)" style="fill: #b40426; stroke: #ffffff"/>
    <path d="M 358.714286 -0 
L 370.671429 -0 
L 370.671429 221.76 
L 358.714286 221.76 
L 358.714286 -0 
" clip-path="url(#p281a11aa2a)" style="fill: #d1493f; stroke: #ffffff"/>
    <path d="M 370.671429 -0 
L 382.628571 -0 
L 382.628571 221.76 
L 370.671429 221.76 
L 370.671429 -0 
" clip-path="url(#p281a11aa2a)" style="fill: #f18f71; stroke: #ffffff"/>
    <path d="M 382.628571 -0 
L 394.585714 -0 
L 394.585714 221.76 
L 382.628571 221.76 
L 382.628571 -0 
" clip-path="url(#p281a11aa2a)" style="fill: #d95847; stroke: #ffffff"/>
    <path d="M 394.585714 -0 
L 406.542857 -0 
L 406.542857 221.76 
L 394.585714 221.76 
L 394.585714 -0 
" clip-path="url(#p281a11aa2a)" style="fill: #d0473d; stroke: #ffffff"/>
    <path d="M 406.542857 -0 
L 418.5 -0 
L 418.5 221.76 
L 406.542857 221.76 
L 406.542857 -0 
" clip-path="url(#p281a11aa2a)" style="fill: #97b8ff; stroke: #ffffff"/>
    <path d="M 418.5 -0 
L 430.457143 -0 
L 430.457143 221.76 
L 418.5 221.76 
L 418.5 -0 
" clip-path="url(#p281a11aa2a)" style="fill: #cfdaea; stroke: #ffffff"/>
    <path d="M 430.457143 -0 
L 442.414286 -0 
L 442.414286 221.76 
L 430.457143 221.76 
L 430.457143 -0 
" clip-path="url(#p281a11aa2a)" style="fill: #d3dbe7; stroke: #ffffff"/>
    <path d="M 442.414286 -0 
L 454.371429 -0 
L 454.371429 221.76 
L 442.414286 221.76 
L 442.414286 -0 
" clip-path="url(#p281a11aa2a)" style="fill: #e0654f; stroke: #ffffff"/>
    <path d="M 454.371429 -0 
L 466.328571 -0 
L 466.328571 221.76 
L 454.371429 221.76 
L 454.371429 -0 
" clip-path="url(#p281a11aa2a)" style="fill: #ebd3c6; stroke: #ffffff"/>
    <path d="M 466.328571 -0 
L 478.285714 -0 
L 478.285714 221.76 
L 466.328571 221.76 
L 466.328571 -0 
" clip-path="url(#p281a11aa2a)" style="fill: #f59c7d; stroke: #ffffff"/>
    <path d="M 478.285714 -0 
L 490.242857 -0 
L 490.242857 221.76 
L 478.285714 221.76 
L 478.285714 -0 
" clip-path="url(#p281a11aa2a)" style="fill: #cf453c; stroke: #ffffff"/>
    <path d="M 490.242857 -0 
L 502.2 -0 
L 502.2 221.76 
L 490.242857 221.76 
L 490.242857 -0 
" clip-path="url(#p281a11aa2a)" style="fill: #cad8ef; stroke: #ffffff"/>
    <path d="M 502.2 -0 
L 514.157143 -0 
L 514.157143 221.76 
L 502.2 221.76 
L 502.2 -0 
" clip-path="url(#p281a11aa2a)" style="fill: #edd1c2; stroke: #ffffff"/>
    <path d="M 514.157143 -0 
L 526.114286 -0 
L 526.114286 221.76 
L 514.157143 221.76 
L 514.157143 -0 
" clip-path="url(#p281a11aa2a)" style="fill: #dc5d4a; stroke: #ffffff"/>
    <path d="M 526.114286 -0 
L 538.071429 -0 
L 538.071429 221.76 
L 526.114286 221.76 
L 526.114286 -0 
" clip-path="url(#p281a11aa2a)" style="fill: #eed0c0; stroke: #ffffff"/>
    <path d="M 538.071429 -0 
L 550.028571 -0 
L 550.028571 221.76 
L 538.071429 221.76 
L 538.071429 -0 
" clip-path="url(#p281a11aa2a)" style="fill: #f6a586; stroke: #ffffff"/>
    <path d="M 550.028571 -0 
L 561.985714 -0 
L 561.985714 221.76 
L 550.028571 221.76 
L 550.028571 -0 
" clip-path="url(#p281a11aa2a)" style="fill: #f7a688; stroke: #ffffff"/>
    <path d="M 561.985714 -0 
L 573.942857 -0 
L 573.942857 221.76 
L 561.985714 221.76 
L 561.985714 -0 
" clip-path="url(#p281a11aa2a)" style="fill: #f7ac8e; stroke: #ffffff"/>
    <path d="M 573.942857 -0 
L 585.9 -0 
L 585.9 221.76 
L 573.942857 221.76 
L 573.942857 -0 
" clip-path="url(#p281a11aa2a)" style="fill: #d6dce4; stroke: #ffffff"/>
    <path d="M 585.9 -0 
L 597.857143 -0 
L 597.857143 221.76 
L 585.9 221.76 
L 585.9 -0 
" clip-path="url(#p281a11aa2a)" style="fill: #f7b396; stroke: #ffffff"/>
    <path d="M 597.857143 -0 
L 609.814286 -0 
L 609.814286 221.76 
L 597.857143 221.76 
L 597.857143 -0 
" clip-path="url(#p281a11aa2a)" style="fill: #f1cdba; stroke: #ffffff"/>
    <path d="M 609.814286 -0 
L 621.771429 -0 
L 621.771429 221.76 
L 609.814286 221.76 
L 609.814286 -0 
" clip-path="url(#p281a11aa2a)" style="fill: #f5a081; stroke: #ffffff"/>
    <path d="M 621.771429 -0 
L 633.728571 -0 
L 633.728571 221.76 
L 621.771429 221.76 
L 621.771429 -0 
" clip-path="url(#p281a11aa2a)" style="fill: #f7b497; stroke: #ffffff"/>
    <path d="M 633.728571 -0 
L 645.685714 -0 
L 645.685714 221.76 
L 633.728571 221.76 
L 633.728571 -0 
" clip-path="url(#p281a11aa2a)" style="fill: #d4dbe6; stroke: #ffffff"/>
    <path d="M 645.685714 -0 
L 657.642857 -0 
L 657.642857 221.76 
L 645.685714 221.76 
L 645.685714 -0 
" clip-path="url(#p281a11aa2a)" style="fill: #f7a688; stroke: #ffffff"/>
    <path d="M 657.642857 -0 
L 669.6 -0 
L 669.6 221.76 
L 657.642857 221.76 
L 657.642857 -0 
" clip-path="url(#p281a11aa2a)" style="fill: #d1493f; stroke: #ffffff"/>
    <path d="M 669.6 -0 
L 681.557143 -0 
L 681.557143 221.76 
L 669.6 221.76 
L 669.6 -0 
" clip-path="url(#p281a11aa2a)" style="fill: #96b7ff; stroke: #ffffff"/>
    <path d="M 681.557143 -0 
L 693.514286 -0 
L 693.514286 221.76 
L 681.557143 221.76 
L 681.557143 -0 
" clip-path="url(#p281a11aa2a)" style="fill: #d24b40; stroke: #ffffff"/>
    <path d="M 693.514286 -0 
L 705.471429 -0 
L 705.471429 221.76 
L 693.514286 221.76 
L 693.514286 -0 
" clip-path="url(#p281a11aa2a)" style="fill: #f5c4ac; stroke: #ffffff"/>
    <path d="M 705.471429 -0 
L 717.428571 -0 
L 717.428571 221.76 
L 705.471429 221.76 
L 705.471429 -0 
" clip-path="url(#p281a11aa2a)" style="fill: #f3c7b1; stroke: #ffffff"/>
    <path d="M 717.428571 -0 
L 729.385714 -0 
L 729.385714 221.76 
L 717.428571 221.76 
L 717.428571 -0 
" clip-path="url(#p281a11aa2a)" style="fill: #d44e41; stroke: #ffffff"/>
    <path d="M 729.385714 -0 
L 741.342857 -0 
L 741.342857 221.76 
L 729.385714 221.76 
L 729.385714 -0 
" clip-path="url(#p281a11aa2a)" style="fill: #d5dbe5; stroke: #ffffff"/>
    <path d="M 741.342857 -0 
L 753.3 -0 
L 753.3 221.76 
L 741.342857 221.76 
L 741.342857 -0 
" clip-path="url(#p281a11aa2a)" style="fill: #c3d5f4; stroke: #ffffff"/>
    <path d="M 753.3 -0 
L 765.257143 -0 
L 765.257143 221.76 
L 753.3 221.76 
L 753.3 -0 
" clip-path="url(#p281a11aa2a)" style="fill: #8fb1fe; stroke: #ffffff"/>
    <path d="M 765.257143 -0 
L 777.214286 -0 
L 777.214286 221.76 
L 765.257143 221.76 
L 765.257143 -0 
" clip-path="url(#p281a11aa2a)" style="fill: #df634e; stroke: #ffffff"/>
    <path d="M 777.214286 -0 
L 789.171429 -0 
L 789.171429 221.76 
L 777.214286 221.76 
L 777.214286 -0 
" clip-path="url(#p281a11aa2a)" style="fill: #f7bca1; stroke: #ffffff"/>
    <path d="M 789.171429 -0 
L 801.128571 -0 
L 801.128571 221.76 
L 789.171429 221.76 
L 789.171429 -0 
" clip-path="url(#p281a11aa2a)" style="fill: #e2dad5; stroke: #ffffff"/>
    <path d="M 801.128571 -0 
L 813.085714 -0 
L 813.085714 221.76 
L 801.128571 221.76 
L 801.128571 -0 
" clip-path="url(#p281a11aa2a)" style="fill: #c5d6f2; stroke: #ffffff"/>
    <path d="M 813.085714 -0 
L 825.042857 -0 
L 825.042857 221.76 
L 813.085714 221.76 
L 813.085714 -0 
" clip-path="url(#p281a11aa2a)" style="fill: #efcfbf; stroke: #ffffff"/>
    <path d="M 825.042857 -0 
L 837 -0 
L 837 221.76 
L 825.042857 221.76 
L 825.042857 -0 
" clip-path="url(#p281a11aa2a)" style="fill: #de614d; stroke: #ffffff"/>
   </g>
  </g>
 </g>
 <defs>
  <clipPath id="p281a11aa2a">
   <rect x="0" y="-0" width="837" height="221.76"/>
  </clipPath>
 </defs>
</svg>
